<svg width="64" height="64" xmlns="http://www.w3.org/2000/svg" xmlns:svg="http://www.w3.org/2000/svg">
  <path fill="#fff" d="m9.54938,9.54932c-2.91503,2.91503 -5.20395,6.31018 -6.80318,10.09131c-1.65633,3.9161 -2.4962,8.07432 -2.4962,12.3594s0.83986,8.4433 2.4962,12.3594c1.5993,3.7812 3.88822,7.17635 6.80318,10.09131c2.91503,2.91496 6.31018,5.20401 10.09131,6.80318c3.91602,1.65633 8.07424,2.49613 12.35932,2.49613s8.4433,-0.83979 12.3594,-2.4962c3.78113,-1.59923 7.17635,-3.88829 10.09131,-6.80325c2.91503,-2.91503 5.20401,-6.31011 6.80318,-10.09131c1.65633,-3.91595 2.49613,-8.07418 2.49613,-12.35925s-0.83979,-8.4433 -2.4962,-12.3594c-1.5993,-3.78113 -3.88829,-7.17629 -6.80325,-10.09131c-2.91503,-2.91496 -6.31011,-5.20395 -10.09131,-6.80318c-3.91595,-1.65626 -8.07418,-2.49613 -12.35925,-2.49613s-8.4433,0.83986 -12.3594,2.4962c-3.78106,1.59923 -7.17629,3.88815 -10.09124,6.80311zm22.45064,48.86757c-7.05618,0 -13.69005,-2.74785 -18.67953,-7.73733c-4.98948,-4.98948 -7.73733,-11.62335 -7.73733,-18.67953s2.74785,-13.69005 7.73733,-18.67953c4.98948,-4.98948 11.62335,-7.73733 18.67953,-7.73733l0,52.83373z" />
</svg>